<svg width="300" height="300" viewBox="0 0 300 300" fill="none" xmlns="http://www.w3.org/2000/svg">
<g clip-path="url(#clip0_307_236)">
<path d="M150.002 0.00143762L0.00341797 150L150.002 299.999L300.001 150L150.002 0.00143762Z" fill="url(#paint0_linear_307_236)"/>
<path d="M241.965 150C241.966 162.077 239.587 174.036 234.966 185.194C230.344 196.352 223.57 206.491 215.031 215.031C206.491 223.57 196.352 230.344 185.194 234.966C174.036 239.587 162.077 241.966 150 241.965C99.21 241.965 58.03 200.795 58.03 150C58.03 99.205 99.21 58.03 150 58.03C200.79 58.03 241.965 99.205 241.965 150Z" fill="white"/>
<path d="M232.77 150C232.768 166.37 227.912 182.372 218.816 195.982C209.72 209.592 196.792 220.199 181.668 226.462C166.543 232.725 149.901 234.363 133.846 231.168C117.791 227.974 103.044 220.09 91.4693 208.514C79.8947 196.938 72.0126 182.189 68.8197 166.134C65.6268 150.078 67.2665 133.437 73.5315 118.313C79.7964 103.189 90.4053 90.263 104.017 81.1685C117.628 72.0741 133.63 67.22 150 67.22C160.871 67.218 171.636 69.3579 181.679 73.5174C191.723 77.6769 200.849 83.7745 208.535 91.4619C216.222 99.1492 222.318 108.276 226.476 118.32C230.635 128.364 232.773 139.129 232.77 150Z" fill="url(#paint1_linear_307_236)"/>
<path d="M101.805 166.115L99.5299 168.015C98.699 168.692 97.789 169.267 96.8199 169.725C95.7844 170.241 94.6988 170.65 93.5799 170.945C92.1335 171.259 90.6546 171.398 89.1749 171.36C87.5498 171.407 85.9326 171.116 84.4257 170.505C82.9187 169.895 81.5548 168.979 80.4199 167.815C78.0866 165.455 76.9199 162.477 76.9199 158.88C76.9199 155.91 77.5049 153.53 78.6849 151.705C79.9489 149.817 81.7129 148.318 83.7799 147.375C86.3253 146.209 89.0356 145.443 91.8149 145.105C94.9283 144.685 98.2783 144.352 101.865 144.105V143.89C101.865 141.695 101.05 140.18 99.4399 139.345C97.8299 138.51 95.4049 138.08 92.1649 138.08C90.4271 138.123 88.7025 138.394 87.0349 138.885C85.078 139.426 83.1643 140.113 81.3099 140.94H80.2499V131.295C81.4799 130.94 83.4649 130.525 86.2149 130.035C88.9546 129.547 91.7321 129.303 94.5149 129.305C101.385 129.305 106.385 130.448 109.515 132.735C112.645 135.022 114.213 138.508 114.22 143.195V170.335H101.805V166.115ZM101.805 159.905V151.64C99.7149 151.855 98.0299 152.04 96.7449 152.185C95.4476 152.339 94.1725 152.643 92.9449 153.09C91.9612 153.406 91.092 154.004 90.4449 154.81C89.8103 155.694 89.4948 156.768 89.5499 157.855C89.5499 159.715 90.0499 160.985 91.0499 161.685C92.0499 162.385 93.5149 162.72 95.4649 162.72C96.6055 162.706 97.7307 162.455 98.7699 161.985C99.8981 161.479 100.926 160.775 101.805 159.905Z" fill="white"/>
<path d="M141.53 171.36C138.468 171.393 135.419 170.974 132.48 170.115C129.861 169.361 127.433 168.055 125.36 166.285C123.324 164.508 121.727 162.283 120.695 159.785C119.52 156.849 118.952 153.706 119.025 150.545C119.025 146.735 119.63 143.495 120.84 140.825C121.953 138.283 123.632 136.029 125.75 134.235C127.805 132.541 130.188 131.291 132.75 130.565C135.481 129.77 138.311 129.369 141.155 129.375C143.382 129.377 145.602 129.635 147.77 130.145C150.076 130.685 152.309 131.501 154.42 132.575V143.24H152.815C152.318 142.767 151.708 142.245 150.985 141.675C150.239 141.088 149.447 140.563 148.615 140.105C147.646 139.578 146.623 139.156 145.565 138.845C144.326 138.492 143.043 138.324 141.755 138.345C138.575 138.345 136.115 139.45 134.375 141.66C132.635 143.865 131.765 146.825 131.765 150.56C131.765 154.56 132.69 157.53 134.555 159.48C136.42 161.43 138.885 162.43 141.97 162.43C143.364 162.447 144.753 162.266 146.095 161.89C147.162 161.595 148.19 161.172 149.155 160.63C149.915 160.19 150.629 159.674 151.285 159.09C151.88 158.59 152.395 158.09 152.815 157.675H154.42V168.295L151.945 169.36C151.017 169.757 150.063 170.091 149.09 170.36C147.971 170.675 146.836 170.929 145.69 171.12C144.312 171.307 142.921 171.387 141.53 171.36Z" fill="white"/>
<path d="M208.65 170.335V150.405C208.65 148.445 208.61 146.785 208.545 145.43C208.516 144.302 208.298 143.186 207.9 142.13C207.59 141.329 207.001 140.668 206.24 140.27C205.25 139.826 204.169 139.624 203.085 139.68C202.116 139.687 201.158 139.896 200.275 140.295C199.212 140.792 198.196 141.385 197.24 142.065V170.335H184.805V150.405C184.805 148.47 184.765 146.815 184.685 145.45C184.646 144.315 184.423 143.194 184.025 142.13C183.714 141.33 183.124 140.67 182.365 140.27C181.396 139.859 180.35 139.657 179.298 139.677C178.245 139.697 177.208 139.938 176.255 140.385C175.264 140.872 174.311 141.433 173.405 142.065V170.335H160.97V130.5H173.405V134.895C175.171 133.347 177.097 131.991 179.15 130.85C181.016 129.859 183.102 129.356 185.215 129.39C187.478 129.341 189.707 129.945 191.635 131.13C193.55 132.372 195.026 134.184 195.855 136.31C197.906 134.348 200.176 132.628 202.62 131.185C204.571 130.035 206.79 129.416 209.055 129.39C210.752 129.364 212.438 129.666 214.02 130.28C215.46 130.852 216.74 131.765 217.75 132.94C218.894 134.269 219.746 135.825 220.25 137.505C220.875 139.748 221.158 142.072 221.09 144.4V170.345L208.65 170.335Z" fill="white"/>
</g>
<defs>
<linearGradient id="paint0_linear_307_236" x1="150.002" y1="0.00143762" x2="149.998" y2="300.002" gradientUnits="userSpaceOnUse">
<stop stop-color="#73BAD1"/>
<stop offset="0.14" stop-color="#6DB7CF"/>
<stop offset="0.33" stop-color="#5DAFCA"/>
<stop offset="0.54" stop-color="#42A2C1"/>
<stop offset="0.77" stop-color="#1C8FB5"/>
<stop offset="0.79" stop-color="#1A8EB4"/>
</linearGradient>
<linearGradient id="paint1_linear_307_236" x1="150" y1="232.765" x2="150" y2="61.575" gradientUnits="userSpaceOnUse">
<stop stop-color="#80C0D5"/>
<stop offset="0.13" stop-color="#7ABDD3"/>
<stop offset="0.31" stop-color="#6AB5CE"/>
<stop offset="0.51" stop-color="#4FA8C5"/>
<stop offset="0.72" stop-color="#2996B9"/>
<stop offset="0.8" stop-color="#1A8EB4"/>
</linearGradient>
<clipPath id="clip0_307_236">
<rect width="300" height="300" fill="white"/>
</clipPath>
</defs>
</svg>
