<svg width="101" height="101" viewBox="0 0 101 101" fill="none" xmlns="http://www.w3.org/2000/svg">
<path d="M50.9057 0C37.3005 0 35.5945 0.0577169 30.2512 0.301411C24.9191 0.544657 21.2775 1.39162 18.091 2.62977C14.7968 3.90999 12.0031 5.623 9.21817 8.40788C6.43311 11.1928 4.72008 13.9867 3.44001 17.2809C2.20154 20.4673 1.35487 24.1088 1.11132 29.4408C0.867627 34.7841 0.810059 36.4901 0.810059 50.0951C0.810059 63.6999 0.867627 65.4059 1.11132 70.7492C1.35487 76.0812 2.20154 79.7227 3.44001 82.9091C4.72023 86.2033 6.43326 88.9969 9.21817 91.7821C12.0032 94.567 14.7968 96.28 18.091 97.5602C21.2775 98.7984 24.9191 99.6452 30.2512 99.8886C35.5945 100.132 37.3005 100.19 50.9057 100.19C64.5106 100.19 66.2167 100.132 71.5599 99.8886C76.892 99.6453 80.5336 98.7984 83.72 97.5602C87.0142 96.28 89.8079 94.567 92.5931 91.7821C95.378 88.9969 97.091 86.2033 98.3713 82.9091C99.6094 79.7227 100.456 76.0812 100.7 70.7492C100.943 65.4059 101.001 63.6999 101.001 50.0951C101.001 36.4901 100.943 34.7841 100.7 29.4408C100.456 24.1088 99.6094 20.4673 98.3713 17.2809C97.091 13.9867 95.378 11.1928 92.5931 8.40788C89.8079 5.623 87.0142 3.90999 83.72 2.62977C80.5336 1.39162 76.892 0.544657 71.5599 0.301411C66.2167 0.0577169 64.5106 0 50.9057 0ZM50.9057 9.02606C64.2815 9.02606 65.866 9.07722 71.1484 9.31822C76.0328 9.54089 78.6853 10.357 80.4504 11.043C82.7889 11.9519 84.4576 13.0373 86.2105 14.7903C87.9636 16.5433 89.0491 18.2121 89.9579 20.5504C90.644 22.3156 91.4601 24.9682 91.6827 29.8523C91.9238 35.1347 91.9749 36.7191 91.9749 50.095C91.9749 63.4709 91.9238 65.0553 91.6827 70.3377C91.4601 75.222 90.644 77.8744 89.9579 79.6395C89.0491 81.978 87.9636 83.6467 86.2105 85.3996C84.4576 87.1527 82.7887 88.2381 80.4505 89.147C78.6853 89.833 76.0327 90.6491 71.1484 90.8718C65.8669 91.1128 64.2826 91.1639 50.9056 91.1639C37.5285 91.1639 35.9445 91.1128 30.6627 90.8716C25.7783 90.6491 23.1258 89.833 21.3608 89.147C19.0222 88.2381 17.3535 87.1527 15.6006 85.3996C13.8476 83.6467 12.7621 81.9779 11.8532 79.6396C11.1671 77.8744 10.3512 75.2218 10.1284 70.3377C9.88736 65.0553 9.83621 63.4709 9.83621 50.095C9.83621 36.7191 9.88736 35.1347 10.1284 29.8523C10.3512 24.968 11.1671 22.3156 11.8532 20.5505C12.7621 18.212 13.8476 16.5433 15.6005 14.7904C17.3535 13.0373 19.0224 11.9519 21.3606 11.043C23.1258 10.357 25.7785 9.54089 30.6627 9.31822C35.9451 9.07722 37.5297 9.02606 50.9057 9.02606Z" fill="white"/>
<path d="M50.9055 66.7935C41.6829 66.7935 34.2068 59.3174 34.2068 50.0953C34.2068 40.8728 41.6829 33.3967 50.9055 33.3967C60.1278 33.3967 67.6039 40.8728 67.6039 50.0953C67.6039 59.3174 60.1278 66.7935 50.9055 66.7935ZM50.9055 24.3707C36.6979 24.3707 25.1807 35.8878 25.1807 50.0953C25.1807 64.3024 36.6979 75.8196 50.9055 75.8196C65.1128 75.8196 76.6301 64.3024 76.6301 50.0953C76.6301 35.8878 65.1128 24.3707 50.9055 24.3707ZM83.658 23.3543C83.658 26.6744 80.9665 29.3656 77.6465 29.3656C74.3266 29.3656 71.635 26.6744 71.635 23.3543C71.635 20.0343 74.3266 17.3428 77.6465 17.3428C80.9665 17.3428 83.658 20.0343 83.658 23.3543Z" fill="white"/>
</svg>
