<svg width="510" height="277" viewBox="0 0 510 277" fill="none" xmlns="http://www.w3.org/2000/svg">
<path fill-rule="evenodd" clip-rule="evenodd" d="M137.873 163.886C124.067 150.08 124.067 127.695 137.873 113.89L195.065 56.6982L206.631 68.2649L151.671 123.225C142.796 132.099 142.796 146.489 151.671 155.365L205.722 209.415L194.562 220.575L137.873 163.886ZM205.276 231.289L226.258 252.27C240.064 266.077 262.447 266.077 276.253 252.27L340.4 188.124H318.894L267.732 239.286C258.858 248.161 244.468 248.161 235.592 239.286L216.436 220.129L205.276 231.289ZM217.345 57.5503L205.779 45.9836L226.258 25.5048C240.064 11.6989 262.447 11.6989 276.253 25.5048L340.391 89.6426H318.071L267.732 39.3034C258.858 30.4282 244.468 30.4282 235.592 39.3034L217.345 57.5503Z" fill="white"/>
<path d="M360.684 106.117C368.926 106.117 375.552 108.662 380.562 113.753C385.652 118.763 388.198 125.793 388.198 134.843V174.236H371.229V137.146C371.229 131.894 369.895 127.894 367.229 125.147C364.562 122.318 360.926 120.904 356.32 120.904C351.714 120.904 348.038 122.318 345.29 125.147C342.624 127.894 341.29 131.894 341.29 137.146V174.236H324.321V137.146C324.321 131.894 322.988 127.894 320.321 125.147C317.655 122.318 314.019 120.904 309.413 120.904C304.726 120.904 301.009 122.318 298.262 125.147C295.595 127.894 294.262 131.894 294.262 137.146V174.236H277.293V107.087H294.262V115.208C296.444 112.379 299.231 110.157 302.625 108.541C306.1 106.925 309.898 106.117 314.019 106.117C319.271 106.117 323.958 107.248 328.079 109.511C332.2 111.693 335.392 114.844 337.654 118.965C339.836 115.086 342.987 111.975 347.108 109.632C351.31 107.289 355.835 106.117 360.684 106.117ZM412.906 99.087C409.917 99.087 407.412 98.1578 405.391 96.2993C403.452 94.3599 402.483 91.9762 402.483 89.148C402.483 86.3198 403.452 83.9765 405.391 82.118C407.412 80.1786 409.917 79.209 412.906 79.209C415.896 79.209 418.361 80.1786 420.3 82.118C422.32 83.9765 423.33 86.3198 423.33 89.148C423.33 91.9762 422.32 94.3599 420.3 96.2993C418.361 98.1578 415.896 99.087 412.906 99.087ZM421.27 107.087V174.236H404.301V107.087H421.27ZM457.792 121.026V153.509C457.792 155.772 458.318 157.428 459.368 158.479C460.499 159.448 462.358 159.933 464.944 159.933H472.822V174.236H462.156C447.853 174.236 440.702 167.287 440.702 153.388V121.026H432.702V107.087H440.702V90.4813H457.792V107.087H472.822V121.026H457.792Z" fill="white"/>
<path d="M113.383 24.998L24.9978 113.383C11.1919 127.189 11.1919 149.573 24.9978 163.379L113.383 251.764C127.189 265.57 149.573 265.57 163.378 251.764L251.763 163.379C265.569 149.573 265.569 127.189 251.763 113.383L163.378 24.998C149.573 11.1921 127.189 11.1921 113.383 24.998Z" fill="white"/>
<path d="M357.33 196.517C357.876 195.709 358.623 195.053 359.572 194.548C360.542 194.043 361.643 193.79 362.875 193.79C364.31 193.79 365.603 194.144 366.754 194.851C367.926 195.558 368.845 196.568 369.512 197.881C370.198 199.174 370.542 200.679 370.542 202.396C370.542 204.113 370.198 205.638 369.512 206.972C368.845 208.285 367.926 209.305 366.754 210.032C365.603 210.759 364.31 211.123 362.875 211.123C361.623 211.123 360.522 210.88 359.572 210.396C358.643 209.891 357.896 209.244 357.33 208.456V210.85H353.088V188.427H357.33V196.517ZM366.209 202.396C366.209 201.386 365.997 200.517 365.572 199.79C365.168 199.043 364.623 198.477 363.936 198.093C363.269 197.709 362.542 197.517 361.754 197.517C360.987 197.517 360.259 197.719 359.572 198.123C358.906 198.507 358.36 199.073 357.936 199.82C357.532 200.568 357.33 201.446 357.33 202.457C357.33 203.467 357.532 204.345 357.936 205.093C358.36 205.84 358.906 206.416 359.572 206.82C360.259 207.204 360.987 207.396 361.754 207.396C362.542 207.396 363.269 207.194 363.936 206.79C364.623 206.386 365.168 205.81 365.572 205.062C365.997 204.315 366.209 203.426 366.209 202.396ZM389.23 202.093C389.23 202.699 389.19 203.244 389.109 203.729H376.837C376.938 204.941 377.362 205.891 378.11 206.578C378.857 207.264 379.776 207.608 380.867 207.608C382.443 207.608 383.564 206.931 384.231 205.578H388.806C388.321 207.194 387.392 208.527 386.018 209.577C384.645 210.608 382.958 211.123 380.958 211.123C379.342 211.123 377.887 210.769 376.595 210.062C375.322 209.335 374.322 208.315 373.595 207.002C372.888 205.689 372.534 204.174 372.534 202.457C372.534 200.719 372.888 199.194 373.595 197.881C374.302 196.568 375.292 195.558 376.564 194.851C377.837 194.144 379.302 193.79 380.958 193.79C382.554 193.79 383.978 194.134 385.231 194.82C386.503 195.507 387.483 196.487 388.17 197.76C388.877 199.012 389.23 200.457 389.23 202.093ZM384.837 200.881C384.817 199.79 384.423 198.921 383.655 198.275C382.887 197.608 381.948 197.275 380.837 197.275C379.786 197.275 378.898 197.598 378.17 198.245C377.463 198.871 377.029 199.75 376.867 200.881H384.837ZM401.629 193.82C403.629 193.82 405.245 194.457 406.477 195.73C407.71 196.982 408.326 198.739 408.326 201.002V210.85H404.083V201.578C404.083 200.244 403.75 199.224 403.083 198.517C402.417 197.79 401.508 197.426 400.356 197.426C399.185 197.426 398.255 197.79 397.569 198.517C396.902 199.224 396.569 200.244 396.569 201.578V210.85H392.326V194.063H396.569V196.154C397.134 195.426 397.851 194.861 398.72 194.457C399.609 194.033 400.579 193.82 401.629 193.82ZM418.935 193.79C420.188 193.79 421.289 194.043 422.238 194.548C423.188 195.033 423.935 195.669 424.48 196.457V194.063H428.753V210.971C428.753 212.527 428.44 213.911 427.814 215.123C427.187 216.355 426.248 217.325 424.996 218.032C423.743 218.759 422.228 219.123 420.45 219.123C418.067 219.123 416.107 218.567 414.572 217.456C413.057 216.345 412.198 214.83 411.996 212.911H416.208C416.43 213.678 416.905 214.284 417.632 214.729C418.38 215.193 419.279 215.426 420.329 215.426C421.561 215.426 422.561 215.052 423.329 214.305C424.097 213.577 424.48 212.466 424.48 210.971V208.365C423.935 209.153 423.177 209.81 422.208 210.335C421.258 210.86 420.167 211.123 418.935 211.123C417.521 211.123 416.228 210.759 415.057 210.032C413.885 209.305 412.956 208.285 412.269 206.972C411.602 205.638 411.269 204.113 411.269 202.396C411.269 200.699 411.602 199.194 412.269 197.881C412.956 196.568 413.875 195.558 415.026 194.851C416.198 194.144 417.501 193.79 418.935 193.79ZM424.48 202.457C424.48 201.426 424.278 200.548 423.874 199.82C423.47 199.073 422.925 198.507 422.238 198.123C421.551 197.719 420.814 197.517 420.026 197.517C419.238 197.517 418.511 197.709 417.844 198.093C417.178 198.477 416.632 199.043 416.208 199.79C415.804 200.517 415.602 201.386 415.602 202.396C415.602 203.406 415.804 204.295 416.208 205.062C416.632 205.81 417.178 206.386 417.844 206.79C418.531 207.194 419.258 207.396 420.026 207.396C420.814 207.396 421.551 207.204 422.238 206.82C422.925 206.416 423.47 205.85 423.874 205.123C424.278 204.376 424.48 203.487 424.48 202.457ZM431.806 202.396C431.806 200.699 432.139 199.194 432.806 197.881C433.493 196.568 434.412 195.558 435.563 194.851C436.735 194.144 438.038 193.79 439.472 193.79C440.725 193.79 441.816 194.043 442.745 194.548C443.694 195.053 444.452 195.689 445.018 196.457V194.063H449.29V210.85H445.018V208.396C444.472 209.184 443.715 209.84 442.745 210.365C441.795 210.87 440.694 211.123 439.442 211.123C438.028 211.123 436.735 210.759 435.563 210.032C434.412 209.305 433.493 208.285 432.806 206.972C432.139 205.638 431.806 204.113 431.806 202.396ZM445.018 202.457C445.018 201.426 444.816 200.548 444.411 199.82C444.007 199.073 443.462 198.507 442.775 198.123C442.088 197.719 441.351 197.517 440.563 197.517C439.775 197.517 439.048 197.709 438.381 198.093C437.715 198.477 437.169 199.043 436.745 199.79C436.341 200.517 436.139 201.386 436.139 202.396C436.139 203.406 436.341 204.295 436.745 205.062C437.169 205.81 437.715 206.386 438.381 206.79C439.068 207.194 439.796 207.396 440.563 207.396C441.351 207.396 442.088 207.204 442.775 206.82C443.462 206.416 444.007 205.85 444.411 205.123C444.816 204.376 445.018 203.487 445.018 202.457ZM457.676 188.427V210.85H453.434V188.427H457.676ZM477.715 194.063V210.85H473.442V208.729C472.897 209.456 472.179 210.032 471.291 210.456C470.422 210.86 469.472 211.062 468.442 211.062C467.129 211.062 465.968 210.79 464.957 210.244C463.947 209.678 463.149 208.86 462.564 207.79C461.998 206.699 461.715 205.406 461.715 203.911V194.063H465.957V203.305C465.957 204.638 466.291 205.669 466.957 206.396C467.624 207.103 468.533 207.456 469.685 207.456C470.856 207.456 471.775 207.103 472.442 206.396C473.109 205.669 473.442 204.638 473.442 203.305V194.063H477.715ZM486.142 196.669C486.688 195.78 487.395 195.083 488.263 194.578C489.152 194.073 490.162 193.82 491.294 193.82V198.275H490.172C488.839 198.275 487.829 198.588 487.142 199.214C486.476 199.84 486.142 200.931 486.142 202.487V210.85H481.9V194.063H486.142V196.669ZM510 194.063V210.85H505.727V208.729C505.182 209.456 504.465 210.032 503.576 210.456C502.707 210.86 501.758 211.062 500.728 211.062C499.415 211.062 498.253 210.79 497.243 210.244C496.233 209.678 495.435 208.86 494.849 207.79C494.283 206.699 494.001 205.406 494.001 203.911V194.063H498.243V203.305C498.243 204.638 498.576 205.669 499.243 206.396C499.909 207.103 500.819 207.456 501.97 207.456C503.142 207.456 504.061 207.103 504.727 206.396C505.394 205.669 505.727 204.638 505.727 203.305V194.063H510Z" fill="white"/>
<path d="M61.6331 137.184C61.6331 133.296 62.3969 129.846 63.9246 126.838C65.4987 123.828 67.6051 121.514 70.2438 119.893C72.929 118.273 75.915 117.463 79.2018 117.463C82.0721 117.463 84.572 118.042 86.7016 119.199C88.8774 120.356 90.6134 121.815 91.9097 123.574V118.088H101.701V156.559H91.9097V150.934C90.6597 152.739 88.9237 154.244 86.7016 155.448C84.5258 156.605 82.0026 157.184 79.1324 157.184C75.8917 157.184 72.929 156.35 70.2438 154.684C67.6051 153.017 65.4987 150.679 63.9246 147.67C62.3969 144.615 61.6331 141.12 61.6331 137.184ZM91.9097 137.323C91.9097 134.962 91.4467 132.948 90.5209 131.282C89.595 129.568 88.3451 128.273 86.771 127.393C85.1969 126.468 83.5072 126.004 81.7017 126.004C79.8963 126.004 78.2297 126.444 76.7019 127.324C75.1742 128.204 73.9243 129.499 72.9521 131.212C72.0262 132.879 71.5632 134.87 71.5632 137.184C71.5632 139.499 72.0262 141.536 72.9521 143.295C73.9243 145.009 75.1742 146.328 76.7019 147.253C78.276 148.179 79.9426 148.642 81.7017 148.642C83.5072 148.642 85.1969 148.203 86.771 147.323C88.3451 146.397 89.595 145.101 90.5209 143.434C91.4467 141.721 91.9097 139.684 91.9097 137.323ZM108.696 137.323C108.696 133.342 109.506 129.87 111.127 126.907C112.747 123.898 114.992 121.583 117.863 119.963C120.733 118.296 124.02 117.463 127.723 117.463C132.492 117.463 136.427 118.666 139.528 121.074C142.677 123.435 144.783 126.768 145.847 131.073H135.361C134.806 129.407 133.858 128.11 132.514 127.185C131.219 126.213 129.598 125.726 127.653 125.726C124.876 125.726 122.677 126.745 121.057 128.782C119.437 130.773 118.626 133.62 118.626 137.323C118.626 140.981 119.437 143.828 121.057 145.865C122.677 147.856 124.876 148.851 127.653 148.851C131.589 148.851 134.158 147.092 135.361 143.573H145.847C144.783 147.74 142.677 151.05 139.528 153.503C136.38 155.956 132.445 157.184 127.723 157.184C124.02 157.184 120.733 156.373 117.863 154.753C114.992 153.087 112.747 150.772 111.127 147.809C109.506 144.8 108.696 141.304 108.696 137.323ZM200.745 117.532C205.467 117.532 209.264 118.991 212.134 121.907C215.05 124.777 216.509 128.805 216.509 133.99V156.559H206.787V135.309C206.787 132.301 206.023 130.009 204.495 128.435C202.967 126.815 200.884 126.004 198.245 126.004C195.607 126.004 193.501 126.815 191.926 128.435C190.398 130.009 189.635 132.301 189.635 135.309V156.559H179.913V135.309C179.913 132.301 179.149 130.009 177.621 128.435C176.093 126.815 174.01 126.004 171.371 126.004C168.687 126.004 166.557 126.815 164.983 128.435C163.455 130.009 162.691 132.301 162.691 135.309V156.559H152.969V118.088H162.691V122.74C163.941 121.12 165.538 119.847 167.483 118.921C169.474 117.995 171.649 117.532 174.01 117.532C177.02 117.532 179.704 118.18 182.065 119.477C184.426 120.727 186.256 122.532 187.551 124.893C188.801 122.671 190.607 120.889 192.968 119.546C195.376 118.204 197.968 117.532 200.745 117.532Z" fill="#FF6725"/>
</svg>
