<svg width="119" height="100" viewBox="0 0 119 100" fill="none" xmlns="http://www.w3.org/2000/svg">
<g clip-path="url(#clip0_310_511)">
<path d="M44.5383 3.72655C42.5686 0.19141 37.4509 0.19141 35.4827 3.72655L1.62128 65.013C0.0458187 68.1562 2.40828 71.6913 5.95196 71.6913H28.7881V94.8694C28.7881 97.2271 30.7578 99.1914 33.1202 99.1914H46.5065C48.869 99.1914 50.8372 97.2271 50.8372 94.8694V71.6913H44.5383C41.7816 71.6913 39.8134 69.727 39.4191 67.3693C39.4191 66.5839 39.4191 65.7985 39.8134 65.0043L58.713 30.8259L44.5383 3.72655Z" fill="white"/>
<path d="M74.4618 3.72655C76.4315 0.19141 81.5492 0.19141 83.5174 3.72655L117.379 65.013C118.954 68.1562 116.592 71.6913 113.048 71.6913H90.6048V94.8694C90.6048 97.2271 88.6366 99.1914 86.2697 99.1914H72.0993C69.7369 99.1914 67.7687 97.2271 67.7687 94.8694V71.6913H74.069C76.8243 71.6913 78.7925 69.727 79.1867 67.3693C79.1867 66.5839 79.1867 65.7985 78.7925 65.0043L59.8943 30.8346L74.4618 3.72655Z" fill="white"/>
</g>
<defs>
<clipPath id="clip0_310_511">
<rect width="119" height="99" fill="white" transform="translate(0 0.191406)"/>
</clipPath>
</defs>
</svg>
