<svg width="100" height="100" viewBox="0 0 100 100" fill="none" xmlns="http://www.w3.org/2000/svg">
<g clip-path="url(#clip0_310_502)">
<path d="M11.7322 1.25098C4.93483 1.25098 0 5.89305 0 12.2842C0 18.6733 4.83692 23.3111 11.4972 23.3111C14.9525 23.3111 17.929 22.2017 20.1071 20.1036C22.1959 18.0895 23.3469 15.3129 23.3447 12.2347C23.1924 5.76811 18.4164 1.25098 11.7322 1.25098ZM17.0739 17.0168C15.7249 18.3157 13.7949 19.0029 11.4972 19.0029C7.29128 19.0029 4.3517 16.2413 4.3517 12.2842C4.3517 8.26255 7.31739 5.55916 11.7322 5.55916C16.0469 5.55916 18.8973 8.21947 18.9952 12.2864C18.993 14.1432 18.312 15.8213 17.0739 17.0168Z" fill="white"/>
<path d="M2.08667 98.1312H21.6432V26.9492H2.08667V98.1312ZM6.43837 31.2574H17.2915V93.8209H6.43837V31.2574Z" fill="white"/>
<path d="M73.213 26.9492C64.144 26.9492 58.5913 30.049 55.3754 32.9634L54.7639 26.9492H32.6377V98.1291H54.307V60.719C54.307 59.1077 54.9663 55.7624 55.3797 54.8792C57.9973 49.2979 61.5287 49.2979 66.8769 49.2979C73.0367 49.2979 78.2414 55.0171 78.2414 61.7852V98.1334H99.9999V57.9165C99.9999 36.6383 86.1136 26.9492 73.213 26.9492ZM95.6482 93.8231H82.5931V61.7831C82.5931 52.6777 75.3954 44.9876 66.8769 44.9876C61.4112 44.9876 55.2187 44.9876 51.4305 53.0655C50.6494 54.7349 49.9531 58.735 49.9531 60.719V93.8231H36.9894V31.2574H50.8278L51.7156 39.9686H55.2818L55.9193 38.9497C57.3706 36.6362 61.9595 31.2553 73.213 31.2553C84.0183 31.2553 95.6482 39.5959 95.6482 57.91V93.8231Z" fill="white"/>
</g>
<defs>
<clipPath id="clip0_310_502">
<rect width="100" height="99" fill="white" transform="translate(0 0.191406)"/>
</clipPath>
</defs>
</svg>
