<svg width="600" height="322" viewBox="0 0 600 322" fill="none" xmlns="http://www.w3.org/2000/svg">
<g clip-path="url(#clip0_328_813)">
<path fill-rule="evenodd" clip-rule="evenodd" d="M159.805 189.956C143.802 173.953 143.802 148.008 159.805 132.007L226.093 65.7178L239.499 79.1244L175.797 142.826C165.511 153.113 165.511 169.791 175.797 180.079L238.446 242.726L225.511 255.662L159.805 189.956ZM237.929 268.08L262.248 292.399C278.251 308.402 304.194 308.402 320.196 292.399L394.547 218.049H369.62L310.32 277.349C300.034 287.636 283.355 287.636 273.067 277.349L250.864 255.145L237.929 268.08ZM251.918 66.7054L238.512 53.2988L262.248 29.5625C278.251 13.5606 304.194 13.5605 320.196 29.5625L394.536 103.903H368.666L310.32 45.556C300.034 35.2691 283.355 35.2691 273.067 45.556L251.918 66.7054Z" fill="#FF6725"/>
<path d="M418.056 122.997C427.61 122.997 435.29 125.947 441.096 131.848C446.997 137.655 449.947 145.803 449.947 156.293V201.951H430.279V158.962C430.279 152.874 428.734 148.238 425.643 145.054C422.552 141.776 418.337 140.137 412.999 140.137C407.66 140.137 403.399 141.776 400.215 145.054C397.124 148.238 395.578 152.874 395.578 158.962V201.951H375.91V158.962C375.91 152.874 374.365 148.238 371.274 145.054C368.183 141.776 363.969 140.137 358.63 140.137C353.198 140.137 348.89 141.776 345.705 145.054C342.615 148.238 341.069 152.874 341.069 158.962V201.951H321.401V124.121H341.069V133.534C343.598 130.256 346.829 127.68 350.763 125.807C354.79 123.934 359.192 122.997 363.969 122.997C370.057 122.997 375.489 124.308 380.265 126.931C385.042 129.46 388.741 133.112 391.364 137.889C393.893 133.393 397.545 129.787 402.322 127.071C407.192 124.355 412.437 122.997 418.056 122.997ZM478.586 114.849C475.121 114.849 472.217 113.772 469.876 111.618C467.628 109.37 466.504 106.607 466.504 103.329C466.504 100.051 467.628 97.3347 469.876 95.1805C472.217 92.9327 475.121 91.8088 478.586 91.8088C482.052 91.8088 484.908 92.9327 487.156 95.1805C489.497 97.3347 490.668 100.051 490.668 103.329C490.668 106.607 489.497 109.37 487.156 111.618C484.908 113.772 482.052 114.849 478.586 114.849ZM488.28 124.121V201.951H468.612V124.121H488.28ZM530.612 140.277V177.928C530.612 180.55 531.221 182.47 532.438 183.688C533.75 184.812 535.904 185.374 538.901 185.374H548.033V201.951H535.67C519.092 201.951 510.803 193.897 510.803 177.787V140.277H501.531V124.121H510.803V104.874H530.612V124.121H548.033V140.277H530.612Z" fill="#FF6725"/>
<path d="M131.418 28.9748L28.9741 131.419C12.9722 147.421 12.9722 173.365 28.9741 189.367L131.418 291.812C147.42 307.814 173.365 307.814 189.367 291.812L291.811 189.367C307.813 173.365 307.813 147.421 291.811 131.419L189.367 28.9748C173.365 12.9728 147.42 12.9728 131.418 28.9748Z" fill="#1E6CFF"/>
<path d="M414.17 227.778C414.802 226.841 415.669 226.08 416.769 225.495C417.893 224.909 419.169 224.617 420.597 224.617C422.26 224.617 423.758 225.026 425.093 225.846C426.451 226.665 427.516 227.836 428.289 229.358C429.085 230.857 429.483 232.601 429.483 234.591C429.483 236.581 429.085 238.349 428.289 239.895C427.516 241.417 426.451 242.599 425.093 243.442C423.758 244.285 422.26 244.706 420.597 244.706C419.146 244.706 417.869 244.425 416.769 243.863C415.692 243.278 414.826 242.529 414.17 241.616V244.39H409.253V218.4H414.17V227.778ZM424.461 234.591C424.461 233.421 424.215 232.414 423.723 231.571C423.255 230.704 422.623 230.049 421.827 229.604C421.054 229.159 420.211 228.937 419.298 228.937C418.408 228.937 417.565 229.171 416.769 229.639C415.996 230.084 415.364 230.74 414.872 231.606C414.404 232.472 414.17 233.491 414.17 234.661C414.17 235.832 414.404 236.851 414.872 237.717C415.364 238.583 415.996 239.251 416.769 239.719C417.565 240.164 418.408 240.386 419.298 240.386C420.211 240.386 421.054 240.152 421.827 239.684C422.623 239.216 423.255 238.548 423.723 237.682C424.215 236.816 424.461 235.785 424.461 234.591ZM451.145 234.24C451.145 234.942 451.098 235.575 451.004 236.137H436.78C436.897 237.541 437.389 238.642 438.255 239.438C439.121 240.234 440.187 240.632 441.451 240.632C443.277 240.632 444.577 239.848 445.349 238.279H450.653C450.091 240.152 449.014 241.698 447.422 242.915C445.83 244.109 443.874 244.706 441.556 244.706C439.683 244.706 437.997 244.297 436.499 243.477C435.024 242.634 433.865 241.452 433.022 239.93C432.202 238.408 431.792 236.652 431.792 234.661C431.792 232.648 432.202 230.88 433.022 229.358C433.841 227.836 434.989 226.665 436.464 225.846C437.939 225.026 439.636 224.617 441.556 224.617C443.406 224.617 445.057 225.015 446.509 225.811C447.984 226.607 449.119 227.742 449.915 229.218C450.735 230.669 451.145 232.343 451.145 234.24ZM446.052 232.835C446.029 231.571 445.572 230.564 444.682 229.815C443.792 229.042 442.704 228.656 441.416 228.656C440.198 228.656 439.168 229.03 438.325 229.78C437.506 230.505 437.002 231.524 436.815 232.835H446.052ZM465.515 224.652C467.833 224.652 469.707 225.389 471.135 226.864C472.563 228.316 473.277 230.353 473.277 232.976V244.39H468.36V233.643C468.36 232.098 467.974 230.915 467.201 230.096C466.429 229.253 465.375 228.831 464.04 228.831C462.682 228.831 461.605 229.253 460.809 230.096C460.036 230.915 459.65 232.098 459.65 233.643V244.39H454.733V224.933H459.65V227.356C460.306 226.513 461.137 225.858 462.144 225.389C463.174 224.898 464.298 224.652 465.515 224.652ZM485.574 224.617C487.026 224.617 488.302 224.909 489.403 225.495C490.503 226.057 491.369 226.794 492.002 227.707V224.933H496.954V244.531C496.954 246.334 496.591 247.938 495.865 249.342C495.139 250.771 494.05 251.895 492.599 252.714C491.147 253.557 489.391 253.979 487.33 253.979C484.568 253.979 482.296 253.335 480.517 252.047C478.761 250.759 477.766 249.003 477.531 246.779H482.413C482.671 247.668 483.221 248.371 484.064 248.886C484.93 249.424 485.972 249.694 487.19 249.694C488.618 249.694 489.777 249.26 490.667 248.394C491.557 247.551 492.002 246.263 492.002 244.531V241.51C491.369 242.423 490.491 243.184 489.368 243.793C488.267 244.402 487.003 244.706 485.574 244.706C483.935 244.706 482.437 244.285 481.079 243.442C479.721 242.599 478.644 241.417 477.848 239.895C477.075 238.349 476.689 236.581 476.689 234.591C476.689 232.624 477.075 230.88 477.848 229.358C478.644 227.836 479.709 226.665 481.044 225.846C482.402 225.026 483.912 224.617 485.574 224.617ZM492.002 234.661C492.002 233.467 491.768 232.449 491.299 231.606C490.831 230.74 490.199 230.084 489.403 229.639C488.607 229.171 487.752 228.937 486.839 228.937C485.926 228.937 485.083 229.159 484.31 229.604C483.537 230.049 482.905 230.704 482.413 231.571C481.945 232.414 481.711 233.421 481.711 234.591C481.711 235.762 481.945 236.792 482.413 237.682C482.905 238.548 483.537 239.216 484.31 239.684C485.106 240.152 485.949 240.386 486.839 240.386C487.752 240.386 488.607 240.164 489.403 239.719C490.199 239.251 490.831 238.595 491.299 237.752C491.768 236.886 492.002 235.856 492.002 234.661ZM500.492 234.591C500.492 232.624 500.879 230.88 501.651 229.358C502.448 227.836 503.513 226.665 504.848 225.846C506.206 225.026 507.716 224.617 509.378 224.617C510.83 224.617 512.094 224.909 513.171 225.495C514.272 226.08 515.15 226.818 515.806 227.707V224.933H520.758V244.39H515.806V241.545C515.173 242.459 514.295 243.22 513.171 243.828C512.071 244.414 510.795 244.706 509.343 244.706C507.704 244.706 506.206 244.285 504.848 243.442C503.513 242.599 502.448 241.417 501.651 239.895C500.879 238.349 500.492 236.581 500.492 234.591ZM515.806 234.661C515.806 233.467 515.571 232.449 515.103 231.606C514.635 230.74 514.003 230.084 513.207 229.639C512.41 229.171 511.556 228.937 510.643 228.937C509.729 228.937 508.887 229.159 508.114 229.604C507.341 230.049 506.709 230.704 506.217 231.571C505.749 232.414 505.515 233.421 505.515 234.591C505.515 235.762 505.749 236.792 506.217 237.682C506.709 238.548 507.341 239.216 508.114 239.684C508.91 240.152 509.753 240.386 510.643 240.386C511.556 240.386 512.41 240.164 513.207 239.719C514.003 239.251 514.635 238.595 515.103 237.752C515.571 236.886 515.806 235.856 515.806 234.661ZM530.478 218.4V244.39H525.561V218.4H530.478ZM553.704 224.933V244.39H548.751V241.932C548.119 242.775 547.288 243.442 546.258 243.934C545.251 244.402 544.15 244.636 542.956 244.636C541.434 244.636 540.088 244.32 538.917 243.688C537.747 243.032 536.822 242.084 536.143 240.843C535.487 239.579 535.159 238.08 535.159 236.347V224.933H540.076V235.645C540.076 237.19 540.463 238.384 541.235 239.227C542.008 240.047 543.062 240.457 544.396 240.457C545.754 240.457 546.82 240.047 547.592 239.227C548.365 238.384 548.751 237.19 548.751 235.645V224.933H553.704ZM563.472 227.953C564.104 226.923 564.924 226.115 565.93 225.53C566.961 224.944 568.131 224.652 569.443 224.652V229.815H568.143C566.598 229.815 565.427 230.178 564.631 230.903C563.858 231.629 563.472 232.894 563.472 234.697V244.39H558.555V224.933H563.472V227.953ZM591.125 224.933V244.39H586.172V241.932C585.54 242.775 584.709 243.442 583.679 243.934C582.672 244.402 581.571 244.636 580.377 244.636C578.855 244.636 577.509 244.32 576.338 243.688C575.168 243.032 574.243 242.084 573.564 240.843C572.908 239.579 572.58 238.08 572.58 236.347V224.933H577.497V235.645C577.497 237.19 577.884 238.384 578.656 239.227C579.429 240.047 580.483 240.457 581.817 240.457C583.175 240.457 584.241 240.047 585.013 239.227C585.786 238.384 586.172 237.19 586.172 235.645V224.933H591.125Z" fill="#1E6CFF"/>
<path d="M71.4365 159.007C71.4365 154.5 72.3219 150.502 74.0926 147.015C75.9171 143.527 78.3585 140.844 81.417 138.966C84.5293 137.088 87.9902 136.149 91.7999 136.149C95.1267 136.149 98.0243 136.819 100.493 138.161C103.015 139.503 105.027 141.193 106.529 143.232V136.873H117.878V181.463H106.529V174.944C105.08 177.037 103.068 178.781 100.493 180.176C97.9707 181.518 95.0462 182.188 91.7194 182.188C87.9633 182.188 84.5293 181.222 81.417 179.29C78.3585 177.359 75.9171 174.648 74.0926 171.161C72.3219 167.62 71.4365 163.569 71.4365 159.007ZM106.529 159.168C106.529 156.432 105.993 154.098 104.919 152.166C103.846 150.18 102.398 148.679 100.573 147.659C98.7487 146.586 96.7902 146.049 94.6975 146.049C92.6048 146.049 90.6731 146.558 88.9024 147.578C87.1316 148.598 85.6829 150.1 84.556 152.085C83.4829 154.017 82.9463 156.325 82.9463 159.007C82.9463 161.69 83.4829 164.052 84.556 166.09C85.6829 168.076 87.1316 169.605 88.9024 170.678C90.7268 171.751 92.6585 172.288 94.6975 172.288C96.7902 172.288 98.7487 171.779 100.573 170.759C102.398 169.686 103.846 168.183 104.919 166.251C105.993 164.265 106.529 161.905 106.529 159.168ZM125.986 159.168C125.986 154.554 126.925 150.53 128.803 147.095C130.681 143.607 133.284 140.924 136.61 139.046C139.937 137.115 143.747 136.149 148.039 136.149C153.566 136.149 158.128 137.544 161.722 140.334C165.372 143.071 167.813 146.934 169.046 151.924H156.893C156.249 149.993 155.15 148.49 153.593 147.417C152.091 146.29 150.212 145.727 147.958 145.727C144.74 145.727 142.191 146.908 140.313 149.268C138.435 151.576 137.496 154.876 137.496 159.168C137.496 163.408 138.435 166.708 140.313 169.068C142.191 171.376 144.74 172.529 147.958 172.529C152.52 172.529 155.498 170.491 156.893 166.412H169.046C167.813 171.241 165.372 175.079 161.722 177.922C158.074 180.765 153.512 182.188 148.039 182.188C143.747 182.188 139.937 181.248 136.61 179.371C133.284 177.439 130.681 174.757 128.803 171.322C126.925 167.835 125.986 163.782 125.986 159.168ZM232.677 136.229C238.15 136.229 242.551 137.92 245.877 141.3C249.257 144.627 250.948 149.295 250.948 155.305V181.463H239.679V156.834C239.679 153.347 238.794 150.691 237.023 148.866C235.253 146.988 232.838 146.049 229.779 146.049C226.721 146.049 224.28 146.988 222.455 148.866C220.684 150.691 219.799 153.347 219.799 156.834V181.463H208.531V156.834C208.531 153.347 207.645 150.691 205.875 148.866C204.104 146.988 201.689 146.049 198.631 146.049C195.519 146.049 193.051 146.988 191.226 148.866C189.455 150.691 188.57 153.347 188.57 156.834V181.463H177.301V136.873H188.57V142.266C190.018 140.388 191.87 138.912 194.123 137.839C196.431 136.766 198.953 136.229 201.689 136.229C205.178 136.229 208.289 136.98 211.026 138.483C213.762 139.932 215.883 142.024 217.384 144.761C218.833 142.185 220.926 140.119 223.662 138.563C226.453 137.007 229.457 136.229 232.677 136.229Z" fill="white"/>
</g>
<defs>
<clipPath id="clip0_328_813">
<rect width="600" height="321.951" fill="white"/>
</clipPath>
</defs>
</svg>
