<svg width="118" height="97" viewBox="0 0 118 97" fill="none" xmlns="http://www.w3.org/2000/svg">
<g clip-path="url(#clip0_310_508)">
<path d="M115.326 11.1698C113.472 11.9958 111.566 12.693 109.619 13.2591C111.924 10.6394 113.682 7.55692 114.755 4.18389C114.996 3.42787 114.746 2.6003 114.128 2.1057C113.51 1.61087 112.652 1.5516 111.972 1.95658C107.836 4.421 103.374 6.19215 98.6954 7.22765C93.9826 2.60099 87.5818 -0.0322266 80.9646 -0.0322266C66.9969 -0.0322266 55.6332 11.3847 55.6332 25.4178C55.6332 26.523 55.7028 27.6221 55.8406 28.706C38.508 27.1771 22.3942 18.6177 11.329 4.98043C10.9346 4.4944 10.3271 4.23228 9.7051 4.28253C9.08284 4.33139 8.52349 4.68404 8.20913 5.22611C5.96484 9.09513 4.77839 13.5203 4.77839 18.0229C4.77839 24.1553 6.95746 29.9736 10.807 34.5201C9.63642 34.1128 8.50068 33.6038 7.41655 32.9993C6.83462 32.6737 6.12432 32.6788 5.54608 33.0118C4.9676 33.345 4.60485 33.9574 4.58941 34.6271C4.58664 34.7398 4.58664 34.8526 4.58664 34.967C4.58664 44.1205 9.49008 52.3617 16.987 56.8534C16.3428 56.7888 15.6993 56.695 15.0598 56.5723C14.4004 56.4456 13.7226 56.6779 13.278 57.1831C12.8328 57.6879 12.6853 58.3916 12.8906 59.0341C15.6655 67.7384 22.8097 74.1406 31.4465 76.0926C24.2831 80.6005 16.0914 82.9617 7.49192 82.9617C5.69749 82.9617 3.89293 82.8558 2.12686 82.6458C1.24947 82.5409 0.410563 83.0615 0.111646 83.8999C-0.187271 84.7386 0.129622 85.6736 0.875877 86.1543C11.9234 93.2711 24.6973 97.0327 37.8162 97.0327C63.6062 97.0327 79.7399 84.8139 88.7325 74.5635C99.9464 61.782 106.378 44.8643 106.378 28.1485C106.378 27.4501 106.367 26.745 106.346 26.042C110.77 22.6931 114.579 18.64 117.678 13.9816C118.149 13.2742 118.098 12.339 117.553 11.6878C117.009 11.0355 116.101 10.8248 115.326 11.1698Z" fill="white"/>
</g>
<defs>
<clipPath id="clip0_310_508">
<rect width="118" height="97" fill="white"/>
</clipPath>
</defs>
</svg>
